# Blender v2.90.1 OBJ File: ''
# www.blender.org
mtllib untitled.mtl
o Cube
v 1.000000 1.000000 -1.000000
v 1.000000 -1.000000 -1.000000
v 1.000000 1.000000 1.000000
v 1.000000 -1.000000 1.000000
v -1.000000 1.000000 -1.000000
v -1.000000 -1.000000 -1.000000
v -1.000000 1.000000 1.000000
v -1.000000 -1.000000 1.000000
v -1.000000 1.000000 -1.000000
v -1.000000 1.000000 1.000000
v -1.000000 -1.000000 1.000000
v -1.000000 -1.000000 -1.000000
v -1.000000 1.000000 -1.000000
v -1.000000 1.000000 1.000000
v -1.000000 -1.000000 1.000000
v -1.000000 -1.000000 -1.000000
v -1.000000 1.000000 -1.000000
v -1.000000 1.000000 1.000000
v -1.000000 -1.000000 1.000000
v -1.000000 -1.000000 -1.000000
v -1.000000 1.000000 -1.000000
v -1.000000 1.000000 1.000000
v -1.000000 -1.000000 1.000000
v -1.000000 -1.000000 -1.000000
v -1.000000 1.000000 -1.000000
v -1.000000 1.000000 1.000000
v -1.000000 -1.000000 1.000000
v -1.000000 -1.000000 -1.000000
v -1.000000 1.000000 -1.000000
v -1.000000 1.000000 1.000000
v -1.000000 -1.000000 1.000000
v -1.000000 -1.000000 -1.000000
v -1.000000 1.000000 -1.000000
v -1.000000 1.000000 1.000000
v -1.000000 -1.000000 1.000000
v -1.000000 -1.000000 -1.000000
v -1.000000 1.000000 -1.000000
v -1.000000 1.000000 1.000000
v -1.000000 -1.000000 1.000000
v -1.000000 -1.000000 -1.000000
v -1.000000 1.000000 -1.000000
v -1.000000 1.000000 1.000000
v -1.000000 -1.000000 1.000000
v -1.000000 -1.000000 -1.000000
v -1.000000 1.000000 -1.000000
v -1.000000 1.000000 1.000000
v -1.000000 -1.000000 1.000000
v -1.000000 -1.000000 -1.000000
v -1.000000 1.000000 -1.000000
v -1.000000 1.000000 1.000000
v -1.000000 -1.000000 1.000000
v -1.000000 -1.000000 -1.000000
v -1.000000 1.000000 -1.000000
v -1.000000 1.000000 1.000000
v -1.000000 -1.000000 1.000000
v -1.000000 -1.000000 -1.000000
v -1.000000 1.000000 -1.000000
v -1.000000 1.000000 1.000000
v -1.000000 -1.000000 1.000000
v -1.000000 -1.000000 -1.000000
v -1.000000 1.000000 -1.000000
v -1.000000 1.000000 1.000000
v -1.000000 -1.000000 1.000000
v -1.000000 -1.000000 -1.000000
v -1.000000 1.000000 -1.000000
v -1.000000 1.000000 1.000000
v -1.000000 -1.000000 1.000000
v -1.000000 -1.000000 -1.000000
v -1.000000 1.000000 -1.000000
v -1.000000 1.000000 1.000000
v -1.000000 -1.000000 1.000000
v -1.000000 -1.000000 -1.000000
v -1.000000 1.000000 -1.000000
v -1.000000 1.000000 1.000000
v -1.000000 -1.000000 1.000000
v -1.000000 -1.000000 -1.000000
v -1.000000 1.000000 -1.000000
v -1.000000 1.000000 1.000000
v -1.000000 -1.000000 1.000000
v -1.000000 -1.000000 -1.000000
v -1.000000 1.000000 -1.000000
v -1.000000 1.000000 1.000000
v -1.000000 -1.000000 1.000000
v -1.000000 -1.000000 -1.000000
v -1.000000 1.000000 -1.000000
v -1.000000 1.000000 1.000000
v -1.000000 -1.000000 1.000000
v -1.000000 -1.000000 -1.000000
v -1.000000 1.000000 -1.000000
v -1.000000 1.000000 1.000000
v -1.000000 -1.000000 1.000000
v -1.000000 -1.000000 -1.000000
v -1.000000 1.000000 -1.000000
v -1.000000 1.000000 1.000000
v -1.000000 -1.000000 1.000000
v -1.000000 -1.000000 -1.000000
v -1.000000 1.000000 -1.000000
v -1.000000 1.000000 1.000000
v -1.000000 -1.000000 1.000000
v -1.000000 -1.000000 -1.000000
v -1.000000 1.000000 -1.000000
v -1.000000 1.000000 1.000000
v -1.000000 -1.000000 1.000000
v -1.000000 -1.000000 -1.000000
v -1.000000 0.560558 -0.560558
v -1.000000 0.560558 0.560558
v -1.000000 -0.560558 0.560558
v -1.000000 -0.560558 -0.560558
v -1.000000 -1.000000 1.000000
v -1.000000 1.000000 1.000000
v -1.000000 -1.000000 -1.000000
v -1.000000 1.000000 -1.000000
v -1.863258 -0.560558 0.560558
v -1.863258 0.560558 0.560558
v -1.863258 -0.560558 -0.560558
v -1.863258 0.560558 -0.560558
vt 0.625000 0.500000
vt 0.625000 0.750000
vt 0.875000 0.750000
vt 0.875000 0.500000
vt 0.375000 0.750000
vt 0.375000 1.000000
vt 0.625000 1.000000
vt 0.375000 0.250000
vt 0.625000 0.250000
vt 0.625000 0.250000
vt 0.375000 0.250000
vt 0.125000 0.500000
vt 0.125000 0.750000
vt 0.375000 0.500000
vt 0.875000 0.750000
vt 0.875000 0.500000
vt 0.375000 1.000000
vt 0.625000 1.000000
vt 0.875000 0.750000
vt 0.875000 0.500000
vt 0.125000 0.500000
vt 0.125000 0.750000
vt 0.125000 0.750000
vt 0.125000 0.500000
vt 0.125000 0.500000
vt 0.125000 0.750000
vt 0.625000 0.250000
vt 0.375000 0.250000
vt 0.375000 1.000000
vt 0.625000 1.000000
vt 0.875000 0.500000
vt 0.875000 0.750000
vt 0.875000 0.750000
vt 0.875000 0.500000
vt 0.375000 1.000000
vt 0.625000 1.000000
vt 0.625000 0.250000
vt 0.375000 0.250000
vt 0.375000 0.250000
vt 0.625000 0.250000
vt 0.625000 0.250000
vt 0.375000 0.250000
vt 0.375000 1.000000
vt 0.625000 1.000000
vt 0.125000 0.500000
vt 0.125000 0.750000
vt 0.875000 0.500000
vt 0.875000 0.750000
vt 0.875000 0.750000
vt 0.875000 0.500000
vt 0.125000 0.500000
vt 0.125000 0.750000
vt 0.375000 1.000000
vt 0.625000 1.000000
vt 0.875000 0.750000
vt 0.875000 0.500000
vt 0.375000 1.000000
vt 0.625000 1.000000
vt 0.625000 0.250000
vt 0.375000 0.250000
vt 0.125000 0.500000
vt 0.125000 0.750000
vt 0.375000 0.250000
vt 0.625000 0.250000
vt 0.625000 0.250000
vt 0.375000 0.250000
vt 0.375000 1.000000
vt 0.625000 1.000000
vt 0.125000 0.500000
vt 0.125000 0.750000
vt 0.875000 0.500000
vt 0.875000 0.750000
vt 0.875000 0.750000
vt 0.875000 0.500000
vt 0.125000 0.500000
vt 0.125000 0.750000
vt 0.375000 1.000000
vt 0.625000 1.000000
vt 0.625000 1.000000
vt 0.375000 1.000000
vt 0.375000 1.000000
vt 0.625000 1.000000
vt 0.625000 0.250000
vt 0.375000 0.250000
vt 0.125000 0.500000
vt 0.125000 0.750000
vt 0.375000 0.250000
vt 0.625000 0.250000
vt 0.625000 0.250000
vt 0.375000 0.250000
vt 0.125000 0.500000
vt 0.125000 0.750000
vt 0.875000 0.750000
vt 0.875000 0.500000
vt 0.875000 0.500000
vt 0.875000 0.750000
vt 0.875000 0.750000
vt 0.875000 0.500000
vt 0.125000 0.500000
vt 0.125000 0.750000
vt 0.375000 1.000000
vt 0.625000 1.000000
vt 0.375000 0.250000
vt 0.625000 0.250000
vt 0.625000 0.250000
vt 0.375000 0.250000
vt 0.375000 1.000000
vt 0.625000 1.000000
vt 0.125000 0.500000
vt 0.125000 0.750000
vt 0.125000 0.750000
vt 0.125000 0.500000
vt 0.125000 0.500000
vt 0.125000 0.750000
vt 0.875000 0.750000
vt 0.875000 0.500000
vt 0.375000 1.000000
vt 0.625000 1.000000
vt 0.875000 0.500000
vt 0.875000 0.750000
vt 0.875000 0.750000
vt 0.875000 0.500000
vt 0.375000 1.000000
vt 0.625000 1.000000
vt 0.625000 0.250000
vt 0.375000 0.250000
vt 0.375000 0.250000
vt 0.625000 0.250000
vt 0.625000 0.250000
vt 0.375000 0.250000
vt 0.375000 1.000000
vt 0.625000 1.000000
vt 0.125000 0.500000
vt 0.125000 0.750000
vt 0.875000 0.500000
vt 0.875000 0.750000
vt 0.875000 0.750000
vt 0.875000 0.500000
vt 0.125000 0.500000
vt 0.125000 0.750000
vt 0.375000 1.000000
vt 0.625000 1.000000
vt 0.875000 0.750000
vt 0.875000 0.500000
vt 0.375000 1.000000
vt 0.625000 1.000000
vt 0.625000 0.250000
vt 0.375000 0.250000
vt 0.125000 0.500000
vt 0.125000 0.750000
vt 0.375000 0.250000
vt 0.625000 0.250000
vt 0.625000 0.250000
vt 0.375000 0.250000
vt 0.375000 1.000000
vt 0.625000 1.000000
vt 0.125000 0.500000
vt 0.125000 0.750000
vt 0.875000 0.500000
vt 0.875000 0.750000
vt 0.875000 0.750000
vt 0.875000 0.500000
vt 0.125000 0.500000
vt 0.125000 0.750000
vt 0.375000 1.000000
vt 0.625000 1.000000
vt 0.625000 1.000000
vt 0.375000 1.000000
vt 0.375000 1.000000
vt 0.625000 1.000000
vt 0.625000 0.250000
vt 0.375000 0.250000
vt 0.125000 0.500000
vt 0.125000 0.750000
vt 0.375000 0.250000
vt 0.625000 0.250000
vt 0.625000 0.250000
vt 0.375000 0.250000
vt 0.125000 0.500000
vt 0.125000 0.750000
vt 0.875000 0.750000
vt 0.875000 0.500000
vt 0.875000 0.500000
vt 0.875000 0.750000
vt 0.875000 0.750000
vt 0.875000 0.500000
vt 0.125000 0.500000
vt 0.125000 0.750000
vt 0.375000 1.000000
vt 0.625000 1.000000
vt 0.375000 0.250000
vt 0.625000 0.250000
vt 0.625000 0.250000
vt 0.375000 0.250000
vt 0.375000 1.000000
vt 0.625000 1.000000
vt 0.125000 0.500000
vt 0.125000 0.750000
vt 0.125000 0.750000
vt 0.125000 0.500000
vt 0.125000 0.500000
vt 0.125000 0.750000
vt 0.875000 0.750000
vt 0.875000 0.500000
vt 0.375000 1.000000
vt 0.625000 1.000000
vt 0.570070 0.195070
vt 0.570070 0.054930
vt 0.570070 0.054930
vt 0.570070 0.195070
vt 0.875000 0.750000
vt 0.875000 0.500000
vt nan nan
vt nan nan
vt nan nan
vt nan nan
vt nan nan
vt nan nan
vt nan nan
vt nan nan
vt 0.429930 0.054930
vt 0.625000 0.000000
vt 0.375000 0.000000
vt 0.429930 0.195070
vt 0.375000 0.250000
vt 0.625000 0.250000
vt 0.429930 0.054930
vt 0.429930 0.195070
vn 0.0000 -1.0000 0.0000
vn 0.0000 0.0000 -1.0000
vn 0.0000 0.0000 1.0000
vn 0.0000 1.0000 0.0000
vn -1.0000 0.0000 0.0000
vn 1.0000 0.0000 0.0000
usemtl Material
s off
f 1/1/1 3/2/1 7/3/1 5/4/1
f 4/5/2 8/6/2 7/7/2 3/2/2
f 6/8/3 5/9/3 9/10/3 12/11/3
f 6/12/4 8/13/4 4/5/4 2/14/4
f 2/14/5 4/5/5 3/2/5 1/1/5
f 6/8/3 2/14/3 1/1/3 5/9/3
f 5/4/3 7/3/3 10/15/3 9/16/3
f 7/7/3 8/6/3 11/17/3 10/18/3
f 9/16/3 10/15/3 14/19/3 13/20/3
f 8/13/3 6/12/3 12/21/3 11/22/3
f 15/23/3 16/24/3 20/25/3 19/26/3
f 11/22/3 12/21/3 16/24/3 15/23/3
f 12/11/3 9/10/3 13/27/3 16/28/3
f 10/18/3 11/17/3 15/29/3 14/30/3
f 17/31/3 18/32/3 22/33/3 21/34/3
f 13/20/3 14/19/3 18/32/3 17/31/3
f 14/30/3 15/29/3 19/35/3 18/36/3
f 16/28/3 13/27/3 17/37/3 20/38/3
f 24/39/3 21/40/3 25/41/3 28/42/3
f 18/36/3 19/35/3 23/43/3 22/44/3
f 20/38/3 17/37/3 21/40/3 24/39/3
f 19/26/3 20/25/3 24/45/3 23/46/3
f 25/47/3 26/48/3 30/49/3 29/50/3
f 23/46/3 24/45/3 28/51/3 27/52/3
f 21/34/3 22/33/3 26/48/3 25/47/3
f 22/44/3 23/43/3 27/53/3 26/54/3
f 29/50/3 30/49/3 34/55/3 33/56/3
f 26/54/3 27/53/3 31/57/3 30/58/3
f 28/42/3 25/41/3 29/59/3 32/60/3
f 27/52/3 28/51/3 32/61/3 31/62/3
f 36/63/3 33/64/3 37/65/3 40/66/3
f 30/58/3 31/57/3 35/67/3 34/68/3
f 32/60/3 29/59/3 33/64/3 36/63/3
f 31/62/3 32/61/3 36/69/3 35/70/3
f 37/71/3 38/72/3 42/73/3 41/74/3
f 35/70/3 36/69/3 40/75/3 39/76/3
f 33/56/3 34/55/3 38/72/3 37/71/3
f 34/68/3 35/67/3 39/77/3 38/78/3
f 42/79/3 43/80/3 47/81/3 46/82/3
f 38/78/3 39/77/3 43/80/3 42/79/3
f 40/66/3 37/65/3 41/83/3 44/84/3
f 39/76/3 40/75/3 44/85/3 43/86/3
f 48/87/3 45/88/3 49/89/3 52/90/3
f 44/84/3 41/83/3 45/88/3 48/87/3
f 43/86/3 44/85/3 48/91/3 47/92/3
f 41/74/3 42/73/3 46/93/3 45/94/3
f 49/95/3 50/96/3 54/97/3 53/98/3
f 47/92/3 48/91/3 52/99/3 51/100/3
f 45/94/3 46/93/3 50/96/3 49/95/3
f 46/82/3 47/81/3 51/101/3 50/102/3
f 56/103/3 53/104/3 57/105/3 60/106/3
f 50/102/3 51/101/3 55/107/3 54/108/3
f 52/90/3 49/89/3 53/104/3 56/103/3
f 51/100/3 52/99/3 56/109/3 55/110/3
f 59/111/3 60/112/3 64/113/3 63/114/3
f 55/110/3 56/109/3 60/112/3 59/111/3
f 53/98/3 54/97/3 58/115/3 57/116/3
f 54/108/3 55/107/3 59/117/3 58/118/3
f 61/119/3 62/120/3 66/121/3 65/122/3
f 57/116/3 58/115/3 62/120/3 61/119/3
f 58/118/3 59/117/3 63/123/3 62/124/3
f 60/106/3 57/105/3 61/125/3 64/126/3
f 68/127/3 65/128/3 69/129/3 72/130/3
f 62/124/3 63/123/3 67/131/3 66/132/3
f 64/126/3 61/125/3 65/128/3 68/127/3
f 63/114/3 64/113/3 68/133/3 67/134/3
f 69/135/3 70/136/3 74/137/3 73/138/3
f 67/134/3 68/133/3 72/139/3 71/140/3
f 65/122/3 66/121/3 70/136/3 69/135/3
f 66/132/3 67/131/3 71/141/3 70/142/3
f 73/138/3 74/137/3 78/143/3 77/144/3
f 70/142/3 71/141/3 75/145/3 74/146/3
f 72/130/3 69/129/3 73/147/3 76/148/3
f 71/140/3 72/139/3 76/149/3 75/150/3
f 80/151/3 77/152/3 81/153/3 84/154/3
f 74/146/3 75/145/3 79/155/3 78/156/3
f 76/148/3 73/147/3 77/152/3 80/151/3
f 75/150/3 76/149/3 80/157/3 79/158/3
f 81/159/3 82/160/3 86/161/3 85/162/3
f 79/158/3 80/157/3 84/163/3 83/164/3
f 77/144/3 78/143/3 82/160/3 81/159/3
f 78/156/3 79/155/3 83/165/3 82/166/3
f 86/167/3 87/168/3 91/169/3 90/170/3
f 82/166/3 83/165/3 87/168/3 86/167/3
f 84/154/3 81/153/3 85/171/3 88/172/3
f 83/164/3 84/163/3 88/173/3 87/174/3
f 92/175/3 89/176/3 93/177/3 96/178/3
f 88/172/3 85/171/3 89/176/3 92/175/3
f 87/174/3 88/173/3 92/179/3 91/180/3
f 85/162/3 86/161/3 90/181/3 89/182/3
f 93/183/3 94/184/3 98/185/3 97/186/3
f 91/180/3 92/179/3 96/187/3 95/188/3
f 89/182/3 90/181/3 94/184/3 93/183/3
f 90/170/3 91/169/3 95/189/3 94/190/3
f 100/191/3 97/192/3 101/193/3 104/194/3
f 94/190/3 95/189/3 99/195/3 98/196/3
f 96/178/3 93/177/3 97/192/3 100/191/3
f 95/188/3 96/187/3 100/197/3 99/198/3
f 103/199/3 104/200/3 111/201/3 109/202/3
f 99/198/3 100/197/3 104/200/3 103/199/3
f 97/186/3 98/185/3 102/203/3 101/204/3
f 98/196/3 99/195/3 103/205/3 102/206/3
f 105/207/1 106/208/1 114/209/1 116/210/1
f 101/204/3 102/203/3 110/211/3 112/212/3
f 102/213/3 103/214/3 109/215/3 110/216/3
f 104/217/3 101/218/3 112/219/3 111/220/3
f 107/221/6 106/208/6 110/222/6 109/223/6
f 108/224/6 107/221/6 109/223/6 111/225/6
f 106/208/6 105/207/6 112/226/6 110/222/6
f 105/207/6 108/224/6 111/225/6 112/226/6
f 113/227/6 115/228/6 116/210/6 114/209/6
f 106/208/2 107/221/2 113/227/2 114/209/2
f 108/224/3 105/207/3 116/210/3 115/228/3
f 107/221/4 108/224/4 115/228/4 113/227/4
