# Blender v2.90.1 OBJ File: ''
# www.blender.org
mtllib lamp.mtl
o Cube
v 1.000000 1.000000 -1.000000
v 1.000000 -1.000000 -1.000000
v 1.000000 1.000000 1.000000
v 1.000000 -1.000000 1.000000
v -1.000000 0.279442 -0.279442
v -1.000000 -0.279442 -0.279442
v -1.000000 0.279442 0.279442
v -1.000000 -0.279442 0.279442
v 1.000000 0.746324 -0.746324
v 1.000000 -0.746324 -0.746324
v 1.000000 0.746324 0.746324
v 1.000000 -0.746324 0.746324
v 1.652953 0.211298 -0.211298
v 1.652953 -0.211298 -0.211298
v 1.652953 0.211298 0.211298
v 1.652953 -0.211298 0.211298
v 2.402975 0.211298 -0.211298
v 2.402975 -0.211298 -0.211298
v 2.402975 0.211298 0.211298
v 2.402975 -0.211298 0.211298
vt 0.625000 0.500000
vt 0.875000 0.750000
vt 0.625000 0.750000
vt 0.375000 1.000000
vt 0.375000 0.750000
vt 0.625000 0.000000
vt 0.375000 0.250000
vt 0.375000 0.000000
vt 0.375000 0.500000
vt 0.125000 0.750000
vt 0.125000 0.500000
vt 0.625000 0.750000
vt 0.625000 0.250000
vt 0.375000 0.500000
vt 0.375000 0.750000
vt 0.375000 0.750000
vt 0.625000 0.500000
vt 0.625000 0.750000
vt 0.625000 0.750000
vt 0.625000 0.500000
vt 0.375000 0.500000
vt 0.625000 0.500000
vt 0.375000 0.750000
vt 0.375000 0.500000
vt 0.875000 0.500000
vt 0.625000 1.000000
vn -0.3390 0.9408 0.0000
vn -0.3390 0.0000 0.9408
vn -1.0000 0.0000 0.0000
vn -0.3390 -0.9408 0.0000
vn 1.0000 0.0000 0.0000
vn -0.3390 0.0000 -0.9408
vn 0.6338 -0.7735 0.0000
vn 0.0000 0.0000 1.0000
vn 0.6338 0.0000 0.7735
vn 0.6338 0.7735 0.0000
vn 0.6338 0.0000 -0.7735
vn 0.0000 1.0000 0.0000
vn 0.0000 0.0000 -1.0000
vn 0.0000 -1.0000 0.0000
usemtl Material
s off
f 1/1/1 7/2/1 3/3/1
f 3/3/2 8/4/2 4/5/2
f 7/6/3 6/7/3 8/8/3
f 2/9/4 8/10/4 6/11/4
f 4/5/5 11/12/5 3/3/5
f 5/13/6 2/9/6 6/7/6
f 10/14/7 16/15/7 12/16/7
f 1/1/5 10/14/5 2/9/5
f 2/9/5 12/16/5 4/5/5
f 3/3/5 9/17/5 1/1/5
f 16/15/8 19/18/8 15/19/8
f 12/16/9 15/19/9 11/12/9
f 11/12/10 13/20/10 9/17/10
f 9/17/11 14/21/11 10/14/11
f 17/22/5 20/23/5 18/24/5
f 15/19/12 17/22/12 13/20/12
f 13/20/13 18/24/13 14/21/13
f 14/21/14 20/23/14 16/15/14
f 1/1/1 5/25/1 7/2/1
f 3/3/2 7/26/2 8/4/2
f 7/6/3 5/13/3 6/7/3
f 2/9/4 4/5/4 8/10/4
f 4/5/5 12/16/5 11/12/5
f 5/13/6 1/1/6 2/9/6
f 10/14/7 14/21/7 16/15/7
f 1/1/5 9/17/5 10/14/5
f 2/9/5 10/14/5 12/16/5
f 3/3/5 11/12/5 9/17/5
f 16/15/8 20/23/8 19/18/8
f 12/16/9 16/15/9 15/19/9
f 11/12/10 15/19/10 13/20/10
f 9/17/11 13/20/11 14/21/11
f 17/22/5 19/18/5 20/23/5
f 15/19/12 19/18/12 17/22/12
f 13/20/13 17/22/13 18/24/13
f 14/21/14 18/24/14 20/23/14
